<svg width="249" height="192" viewBox="0 0 249 192" fill="none" xmlns="http://www.w3.org/2000/svg">
<path d="M133.929 179.29C129.643 182.576 144.071 194.718 108.643 181.933C73.2857 169.147 58.8571 124.576 51.6429 100.004C44.4286 75.4327 63.7857 42.0041 76.5714 32.5041C89.3571 23.0041 112.929 19.0755 115.571 18.7184C118.143 18.4327 121.786 16.7898 128 10.5755C134.214 4.36123 153.857 -2.2102 168 0.718376C182.071 3.64695 217.143 37.0755 240.357 84.2898C263.643 131.433 232.214 165.218 226.643 165.218C221.071 165.218 188.929 143.576 186 140.933C183.071 138.361 175.857 137.647 170.571 135.718C165.357 133.718 153.214 119.361 153.214 119.361C155.214 155.361 138.143 176.004 133.929 179.29Z" fill="#EAB363"/>
<path d="M120.143 183.861C112.571 183.861 92.9286 170.147 72 141.29C51 112.433 56.9286 72.147 56.9286 72.147C53 133.433 124.429 180.933 124.429 180.933C124.429 180.933 127.643 183.861 120.143 183.861Z" fill="#8C5E28"/>
<path d="M170.571 135.718C165.357 133.718 153.214 119.361 153.214 119.361C153.214 119.361 147.643 60.3613 153.214 34.5041C158.786 8.57554 161.714 8.28983 165.643 16.7898C169.214 24.4327 170.357 107.218 182.714 139.147C179.214 137.861 174.357 137.147 170.571 135.718Z" fill="#E2942D"/>
<path d="M114.571 20.7184C114.571 20.7184 103.429 29.8612 101.143 30.5755C98.8571 31.2184 72.9286 44.647 65.7857 58.7184C58.5714 72.7898 63.1429 51.2184 70.6429 43.647C78.2143 36.147 96.8571 22.647 114.571 20.7184Z" fill="#8C5E28"/>
<path d="M107.5 167.647C63.3571 191.576 11.0714 191.79 11.0714 191.79C16.9286 177.004 0 151.933 0 151.933C48.6429 157.076 80.6429 139.147 80.6429 139.147C81.7857 140.647 107.5 167.647 107.5 167.647Z" fill="#E6E6E6"/>
<path opacity="0.1" d="M107.5 167.647C94 174.933 79.7857 180.004 66.5 183.576C61.6429 166.218 50.3571 156.361 41.2857 151.076C65.9286 147.361 80.6429 139.147 80.6429 139.147C81.7857 140.647 107.5 167.647 107.5 167.647Z" fill="black"/>
<path d="M133.643 26.7184C126.714 39.9327 108.286 31.9327 112.429 31.7184C116.571 31.5041 129 14.4327 137.286 8.71837C145.643 3.00408 168 0.718365 170.5 4.28979C173.071 7.86122 165.929 8.43265 157.643 8.71837C149.286 8.93265 143.786 50.8612 143.786 50.8612C128.571 43.0041 140.571 13.5041 133.643 26.7184Z" fill="#F4CD9A"/>
</svg>
